<svg version="1.1" id="Layer_1" xmlns="http://www.w3.org/2000/svg" xmlns:xlink="http://www.w3.org/1999/xlink" x="0px" y="0px"
	 width="100%" viewBox="0 0 1000 1000" enable-background="new 0 0 1000 1000" xml:space="preserve">
<path fill="#DF143C" opacity="1.000000" stroke="none" 
	d="
M1.000000,644.000000 
	C1.000000,429.717957 1.000000,215.435913 1.000000,1.076939 
	C334.333313,1.076939 667.666687,1.076939 1001.000000,1.076939 
	C1001.000000,37.431324 1001.000000,73.755959 1000.535095,110.606049 
	C999.239136,111.087814 998.407776,111.002037 997.577026,111.006462 
	C948.434753,111.268227 899.292236,111.499214 850.150330,111.816116 
	C795.349182,112.169518 740.545959,112.392273 685.748962,113.091431 
	C659.933167,113.420815 634.161621,115.012802 609.278748,122.952599 
	C563.707642,137.493729 535.366760,179.182388 538.383911,226.809296 
	C540.120667,254.224167 547.801208,280.209686 557.819275,305.451752 
	C580.078735,361.537903 602.916077,417.395538 625.678955,473.280701 
	C636.780762,500.536743 648.411133,527.569336 653.622742,556.807983 
	C657.610291,579.179443 653.072998,599.269714 637.701111,616.197632 
	C626.817932,628.182495 612.329712,634.185486 596.921143,638.017090 
	C571.282166,644.392761 545.140259,644.363586 518.976868,643.810608 
	C511.565247,643.653992 510.153259,644.871399 510.151184,652.255005 
	C510.139587,693.413452 510.139862,734.571899 510.151276,775.730347 
	C510.153198,782.644531 511.467896,783.955811 518.221436,784.000366 
	C546.373596,784.186157 574.525757,784.360840 602.677795,784.562073 
	C617.168335,784.665649 631.662720,785.099854 646.148071,784.887939 
	C678.102051,784.420593 710.098145,784.480103 741.987061,782.706116 
	C765.562073,781.394653 788.446655,775.277649 808.712280,762.515076 
	C849.171448,737.035339 866.778259,698.374451 869.700989,652.200317 
	C871.434143,624.821106 864.765381,598.633545 854.500549,573.428040 
	C823.714417,497.832214 792.663635,422.344147 761.887939,346.744141 
	C756.325989,333.081116 750.346313,319.400879 746.718567,305.177917 
	C739.775513,277.956421 750.565552,259.083160 777.484131,250.886627 
	C789.463257,247.239029 802.171448,244.914124 814.668091,244.256744 
	C842.254456,242.805588 869.913940,242.531891 897.548340,242.259537 
	C932.029724,241.919724 966.515869,242.064484 1001.000000,242.000000 
	C1001.000000,494.946320 1001.000000,747.892639 1001.000000,1000.919434 
	C667.666687,1000.919434 334.333344,1000.919434 1.000000,1000.919434 
	C1.000000,928.888733 1.000000,856.904053 1.469070,784.471558 
	C3.599964,784.080200 5.261779,784.185730 6.923611,784.185974 
	C60.719170,784.194580 114.514725,784.194153 168.310287,784.191895 
	C176.014084,784.191589 176.851959,783.349243 176.852585,775.584229 
	C176.855942,734.779541 176.854797,693.974915 176.853653,653.170227 
	C176.853409,644.618835 176.047836,643.810608 167.371872,643.809570 
	C120.571404,643.804016 73.770927,643.797241 26.970461,643.815613 
	C18.313618,643.819031 9.656819,643.935669 1.000000,644.000000 
M234.439209,508.499695 
	C234.439209,630.475586 234.438614,752.451416 234.440598,874.427307 
	C234.440720,882.482300 235.164902,883.194702 243.313492,883.194946 
	C299.635712,883.196777 355.957916,883.197937 412.280121,883.193542 
	C419.737213,883.192993 420.558228,882.365967 420.558380,874.841980 
	C420.561462,709.374695 420.561523,543.907349 420.557953,378.440033 
	C420.557770,371.059570 419.626617,370.144897 412.203766,370.144562 
	C355.714905,370.142029 299.226074,370.141937 242.737228,370.144714 
	C235.407883,370.145081 234.442734,371.113983 234.441833,378.525116 
	C234.436600,421.516632 234.439270,464.508148 234.439209,508.499695 
M245.364731,95.876167 
	C223.034256,121.841194 214.182251,151.753342 218.883270,185.712570 
	C227.005386,244.384888 285.411987,287.433746 343.791412,277.705383 
	C405.439270,267.432343 445.324860,212.465073 435.949951,150.699539 
	C428.199982,99.639748 381.308380,59.219563 329.749268,58.974632 
	C296.405029,58.816235 268.513214,71.005859 245.364731,95.876167 
z"/>
<path fill="#FFFFFF" opacity="1.000000" stroke="none" 
	d="
M1001.000000,241.531342 
	C966.515869,242.064484 932.029724,241.919724 897.548340,242.259537 
	C869.913940,242.531891 842.254456,242.805588 814.668091,244.256744 
	C802.171448,244.914124 789.463257,247.239029 777.484131,250.886627 
	C750.565552,259.083160 739.775513,277.956421 746.718567,305.177917 
	C750.346313,319.400879 756.325989,333.081116 761.887939,346.744141 
	C792.663635,422.344147 823.714417,497.832214 854.500549,573.428040 
	C864.765381,598.633545 871.434143,624.821106 869.700989,652.200317 
	C866.778259,698.374451 849.171448,737.035339 808.712280,762.515076 
	C788.446655,775.277649 765.562073,781.394653 741.987061,782.706116 
	C710.098145,784.480103 678.102051,784.420593 646.148071,784.887939 
	C631.662720,785.099854 617.168335,784.665649 602.677795,784.562073 
	C574.525757,784.360840 546.373596,784.186157 518.221436,784.000366 
	C511.467896,783.955811 510.153198,782.644531 510.151276,775.730347 
	C510.139862,734.571899 510.139587,693.413452 510.151184,652.255005 
	C510.153259,644.871399 511.565247,643.653992 518.976868,643.810608 
	C545.140259,644.363586 571.282166,644.392761 596.921143,638.017090 
	C612.329712,634.185486 626.817932,628.182495 637.701111,616.197632 
	C653.072998,599.269714 657.610291,579.179443 653.622742,556.807983 
	C648.411133,527.569336 636.780762,500.536743 625.678955,473.280701 
	C602.916077,417.395538 580.078735,361.537903 557.819275,305.451752 
	C547.801208,280.209686 540.120667,254.224167 538.383911,226.809296 
	C535.366760,179.182388 563.707642,137.493729 609.278748,122.952599 
	C634.161621,115.012802 659.933167,113.420815 685.748962,113.091431 
	C740.545959,112.392273 795.349182,112.169518 850.150330,111.816116 
	C899.292236,111.499214 948.434753,111.268227 997.577026,111.006462 
	C998.407776,111.002037 999.239136,111.087814 1000.535095,111.065750 
	C1001.000000,154.354233 1001.000000,197.708450 1001.000000,241.531342 
z"/>
<path fill="#FFFFFF" opacity="1.000000" stroke="none" 
	d="
M1.000000,644.468628 
	C9.656819,643.935669 18.313618,643.819031 26.970461,643.815613 
	C73.770927,643.797241 120.571404,643.804016 167.371872,643.809570 
	C176.047836,643.810608 176.853409,644.618835 176.853653,653.170227 
	C176.854797,693.974915 176.855942,734.779541 176.852585,775.584229 
	C176.851959,783.349243 176.014084,784.191589 168.310287,784.191895 
	C114.514725,784.194153 60.719170,784.194580 6.923611,784.185974 
	C5.261779,784.185730 3.599964,784.080200 1.469070,784.011841 
	C1.000000,737.645752 1.000000,691.291565 1.000000,644.468628 
z"/>
<path fill="#FFFEFE" opacity="1.000000" stroke="none" 
	d="
M234.439240,507.999695 
	C234.439270,464.508148 234.436600,421.516632 234.441833,378.525116 
	C234.442734,371.113983 235.407883,370.145081 242.737228,370.144714 
	C299.226074,370.141937 355.714905,370.142029 412.203766,370.144562 
	C419.626617,370.144897 420.557770,371.059570 420.557953,378.440033 
	C420.561523,543.907349 420.561462,709.374695 420.558380,874.841980 
	C420.558228,882.365967 419.737213,883.192993 412.280121,883.193542 
	C355.957916,883.197937 299.635712,883.196777 243.313492,883.194946 
	C235.164902,883.194702 234.440720,882.482300 234.440598,874.427307 
	C234.438614,752.451416 234.439209,630.475586 234.439240,507.999695 
z"/>
<path fill="#FFFFFE" opacity="1.000000" stroke="none" 
	d="
M245.601440,95.611176 
	C268.513214,71.005859 296.405029,58.816235 329.749268,58.974632 
	C381.308380,59.219563 428.199982,99.639748 435.949951,150.699539 
	C445.324860,212.465073 405.439270,267.432343 343.791412,277.705383 
	C285.411987,287.433746 227.005386,244.384888 218.883270,185.712570 
	C214.182251,151.753342 223.034256,121.841194 245.601440,95.611176 
z"/>
</svg>