<?xml version="1.0" standalone="no"?>
<!DOCTYPE svg PUBLIC "-//W3C//DTD SVG 20010904//EN"
 "http://www.w3.org/TR/2001/REC-SVG-20010904/DTD/svg10.dtd">
<svg version="1.0" xmlns="http://www.w3.org/2000/svg"
 width="1000.000000pt" height="1000.000000pt" viewBox="0 0 1000.000000 1000.000000"
 preserveAspectRatio="xMidYMid meet">

<g transform="translate(0.000000,1000.000000) scale(0.100000,-0.100000)"
fill="#000000" stroke="none">
<path d="M0 6785 l0 -3215 870 0 c849 0 870 0 880 -19 14 -27 14 -1335 0
-1362 -10 -19 -31 -19 -880 -19 l-870 0 0 -1085 0 -1085 5000 0 5000 0 0 3797
0 3796 -822 -7 c-1027 -8 -1175 -16 -1378 -73 -302 -84 -417 -297 -329 -613
11 -40 110 -288 219 -550 454 -1088 885 -2160 923 -2295 98 -347 101 -660 10
-949 -63 -203 -184 -407 -323 -546 -206 -208 -456 -320 -840 -376 -143 -21
-974 -30 -1798 -19 -454 6 -545 10 -557 22 -13 12 -15 112 -15 679 0 440 4
672 10 685 10 18 23 19 199 19 569 0 881 83 1069 285 101 107 157 247 169 415
11 174 -67 455 -257 920 -426 1045 -733 1811 -769 1920 -172 515 -184 852 -39
1149 144 294 398 484 751 560 268 58 510 66 2485 77 l1292 7 0 549 0 548
-5000 0 -5000 0 0 -3215z m3540 2602 c447 -117 776 -504 820 -963 36 -382
-127 -749 -436 -984 -95 -72 -269 -155 -389 -187 -89 -23 -118 -26 -270 -26
-152 0 -180 2 -270 26 -164 44 -325 129 -451 239 -480 418 -507 1153 -59 1603
141 142 336 252 519 295 119 28 128 29 291 25 121 -2 168 -8 245 -28z m642
-3094 c17 -16 18 -108 18 -2545 0 -1724 -3 -2535 -10 -2549 -10 -19 -31 -19
-925 -19 -894 0 -915 0 -925 19 -7 14 -10 824 -10 2547 0 2338 1 2529 17 2546
15 17 57 18 916 18 824 0 902 -1 919 -17z"/>
</g>
</svg>
