<?xml version="1.0" encoding="UTF-8"?>
<svg id="Ebene_2" data-name="Ebene 2" xmlns="http://www.w3.org/2000/svg" viewBox="0 0 1000 1000">
  <defs>
    <style>
      .cls-1 {
        fill: #df1b3b;
      }
    </style>
  </defs>
  <path class="cls-1" d="M681.35,111.94c104.07-1.07,208.26-1.79,312.56-2.16.01.01.03.01.04.02h4.45s.05-.02.07-.02h1.53V0H0v642.75h170.88c2.77,0,5,2.24,5,5v130.69c0,2.77-2.23,5-5,5H0v216.56h1000V241.15h-3.85c-59.38-.25-118.39.26-177.01,1.55-51.4,3.2-89.95,16.82-69.48,76.16.01.03.02.05.03.08,34.63,82.22,68.36,164.44,101.19,246.64,21.74,50.98,26.86,102.63-.97,152.23-33.46,59.65-95.08,66.67-158.18,66.49l-176.94-1.13c-.07,0-.14-.01-.21-.02-3.48-.6-4.63-1-5.39-4.67-.02-.09-.03-.18-.03-.26l-.07-130.23c0-.08,0-.16.02-.24.59-2.99,1.12-4.33,4.37-5.07.1-.02.21-.03.31-.03,55.44,1.09,135.05,1.86,140.18-70.17.28-3.9.04-7.83-.62-11.68-4.14-24.03-11.3-47.45-21.5-70.28l-76.1-187.9c-16.45-46.69-31.44-96.97-1.08-141.49,29.83-43.74,78.9-47.22,126.68-49.19ZM419.72,877.4c0,2.76-2.24,5-5,5h-176.42c-2.77,0-5-2.24-5-5v-503.38c0-2.77,2.23-5,5-5h176.42c2.76,0,5,2.23,5,5v503.38ZM326.51,277.95c-60.79,0-110.06-49.27-110.06-110.06s49.27-110.06,110.06-110.06,110.06,49.28,110.06,110.06-49.28,110.06-110.06,110.06Z"/>
</svg>